<svg width="200" height="200" xmlns="http://www.w3.org/2000/svg">
  <!-- Background -->
  <circle cx="100" cy="100" r="95" fill="#3498DB"/>
  <circle cx="100" cy="100" r="85" fill="#ECF0F1"/>
  
  <!-- Car Silhouette -->
  <path d="M40,120 L55,110 L65,100 L135,100 L145,110 L160,120 Z" fill="#BDC3C7"/>
  
  <!-- Car Windows -->
  <path d="M70,100 L80,80 L120,80 L130,100 Z" fill="#3498DB"/>
  
  <!-- Car Wheels -->
  <circle cx="65" cy="120" r="10" fill="#34495E"/>
  <circle cx="135" cy="120" r="10" fill="#34495E"/>
  
  <!-- Paint Spray Gun -->
  <path d="M110,60 L130,80 L125,85 L105,65 Z" fill="#7F8C8D" stroke="#2C3E50" stroke-width="1"/>
  <rect x="105" y="55" width="15" height="10" rx="2" fill="#7F8C8D" stroke="#2C3E50" stroke-width="1"/>
  <path d="M105,60 L85,50" stroke="#7F8C8D" stroke-width="2"/>
  
  <!-- Paint Spray -->
  <path d="M130,80 Q145,75 160,85 Q145,90 130,80" fill="#E74C3C" opacity="0.8"/>
  <path d="M130,80 Q150,85 155,100 Q135,90 130,80" fill="#E74C3C" opacity="0.8"/>
  <path d="M130,80 Q140,65 145,55 Q135,70 130,80" fill="#E74C3C" opacity="0.8"/>
  
  <!-- Paint Can -->
  <rect x="55" y="60" width="30" height="25" fill="#3498DB" stroke="#2C3E50" stroke-width="1"/>
  <rect x="60" y="55" width="20" height="5" fill="#7F8C8D" stroke="#2C3E50" stroke-width="1"/>
  <path d="M65,60 L65,70 M75,60 L75,70" stroke="#2C3E50" stroke-width="1" stroke-dasharray="2,2"/>
  
  <!-- Service Label -->
  <rect x="40" y="140" width="120" height="30" rx="5" fill="#3498DB"/>
  <text x="100" y="160" font-family="Arial" font-size="14" font-weight="bold" text-anchor="middle" fill="white">AUTO PAINTING</text>
</svg>