<svg width="200" height="200" xmlns="http://www.w3.org/2000/svg">
  <!-- Background -->
  <circle cx="100" cy="100" r="95" fill="#9B59B6"/>
  <circle cx="100" cy="100" r="85" fill="#ECF0F1"/>
  
  <!-- Large Gear -->
  <circle cx="100" cy="100" r="40" fill="#BDC3C7" stroke="#7F8C8D" stroke-width="2"/>
  <circle cx="100" cy="100" r="15" fill="#7F8C8D"/>
  
  <!-- Gear Teeth -->
  <path d="M100,60 L105,50 L95,50 Z" fill="#7F8C8D"/>
  <path d="M135,85 L145,80 L145,90 Z" fill="#7F8C8D"/>
  <path d="M135,115 L145,110 L145,120 Z" fill="#7F8C8D"/>
  <path d="M100,140 L105,150 L95,150 Z" fill="#7F8C8D"/>
  <path d="M65,115 L55,110 L55,120 Z" fill="#7F8C8D"/>
  <path d="M65,85 L55,80 L55,90 Z" fill="#7F8C8D"/>
  <path d="M120,65 L130,55 L125,65 Z" fill="#7F8C8D"/>
  <path d="M80,65 L70,55 L75,65 Z" fill="#7F8C8D"/>
  <path d="M120,135 L130,145 L125,135 Z" fill="#7F8C8D"/>
  <path d="M80,135 L70,145 L75,135 Z" fill="#7F8C8D"/>
  
  <!-- Connecting Lines -->
  <line x1="100" y1="60" x2="100" y2="50" stroke="#7F8C8D" stroke-width="4"/>
  <line x1="135" y1="85" x2="145" y2="85" stroke="#7F8C8D" stroke-width="4"/>
  <line x1="135" y1="115" x2="145" y2="115" stroke="#7F8C8D" stroke-width="4"/>
  <line x1="100" y1="140" x2="100" y2="150" stroke="#7F8C8D" stroke-width="4"/>
  <line x1="65" y1="115" x2="55" y2="115" stroke="#7F8C8D" stroke-width="4"/>
  <line x1="65" y1="85" x2="55" y2="85" stroke="#7F8C8D" stroke-width="4"/>
  <line x1="120" y1="65" x2="130" y2="55" stroke="#7F8C8D" stroke-width="3"/>
  <line x1="80" y1="65" x2="70" y2="55" stroke="#7F8C8D" stroke-width="3"/>
  <line x1="120" y1="135" x2="130" y2="145" stroke="#7F8C8D" stroke-width="3"/>
  <line x1="80" y1="135" x2="70" y2="145" stroke="#7F8C8D" stroke-width="3"/>
  
  <!-- Wrench -->
  <path d="M150,40 L170,60 L165,65 L145,45 Z" fill="#7F8C8D" stroke="#34495E" stroke-width="1"/>
  <circle cx="160" cy="50" r="7" fill="#7F8C8D" stroke="#34495E" stroke-width="1"/>
  
  <!-- Engine Piston Icon -->
  <rect x="40" y="60" width="20" height="30" rx="3" fill="#34495E"/>
  <rect x="35" y="50" width="30" height="10" rx="3" fill="#7F8C8D"/>
  <rect x="45" y="40" width="10" height="10" fill="#7F8C8D"/>
  <rect x="40" y="90" width="20" height="5" rx="2" fill="#7F8C8D"/>
  
  <!-- Service Label -->
  <rect x="40" y="140" width="120" height="30" rx="5" fill="#9B59B6"/>
  <text x="100" y="160" font-family="Arial" font-size="14" font-weight="bold" text-anchor="middle" fill="white">MECHANICAL REPAIR</text>
</svg>