<svg width="200" height="200" xmlns="http://www.w3.org/2000/svg">
  <defs>
    <linearGradient id="grad1" x1="0%" y1="0%" x2="100%" y2="0%">
      <stop offset="0%" style="stop-color:#3498DB;stop-opacity:1" />
      <stop offset="100%" style="stop-color:#2980B9;stop-opacity:1" />
    </linearGradient>
  </defs>
  
  <!-- Background circle -->
  <circle cx="100" cy="100" r="100" fill="url(#grad1)"/>
  
  <!-- Person silhouette -->
  <circle cx="100" cy="85" r="40" fill="#ECF0F1"/>
  
  <!-- Hair -->
  <path d="M70,75 C70,55 130,55 130,75 L100,95 Z" fill="#A97142"/>
  <path d="M70,75 C70,55 130,55 130,75" stroke="#A97142" stroke-width="20" fill="none"/>
  
  <!-- Face features -->
  <path d="M90,85 A20,20 0 0,1 110,85" stroke="#2C3E50" stroke-width="2" fill="none"/>
  
  <!-- Neck and shoulders -->
  <path d="M85,120 L70,150 L130,150 L115,120" fill="#ECF0F1"/>
  
  <!-- Clothing -->
  <path d="M70,150 L70,200 L130,200 L130,150" fill="#D35400"/>
  
  <!-- Name banner -->
  <rect x="0" y="160" width="200" height="40" fill="#2C3E50"/>
  <text x="100" y="185" font-family="Arial" font-size="16" text-anchor="middle" fill="white">Sarah Johnson</text>
</svg>