<svg width="200" height="200" xmlns="http://www.w3.org/2000/svg">
  <defs>
    <linearGradient id="grad3" x1="0%" y1="0%" x2="100%" y2="0%">
      <stop offset="0%" style="stop-color:#F1C40F;stop-opacity:1" />
      <stop offset="100%" style="stop-color:#F39C12;stop-opacity:1" />
    </linearGradient>
  </defs>
  
  <!-- Background circle -->
  <circle cx="100" cy="100" r="100" fill="url(#grad3)"/>
  
  <!-- Person silhouette -->
  <circle cx="100" cy="85" r="40" fill="#ECF0F1"/>
  
  <!-- Hair -->
  <path d="M100,45 L130,65 L120,85 L80,85 L70,65 Z" fill="#A56B46"/>
  
  <!-- Face features -->
  <path d="M90,90 A20,20 0 0,1 110,90" stroke="#2C3E50" stroke-width="2" fill="none"/>
  
  <!-- Glasses -->
  <circle cx="85" cy="80" r="10" fill="none" stroke="#2C3E50" stroke-width="2"/>
  <circle cx="115" cy="80" r="10" fill="none" stroke="#2C3E50" stroke-width="2"/>
  <line x1="95" y1="80" x2="105" y2="80" stroke="#2C3E50" stroke-width="2"/>
  
  <!-- Neck and shoulders -->
  <path d="M85,120 L70,150 L130,150 L115,120" fill="#ECF0F1"/>
  
  <!-- Clothing -->
  <path d="M70,150 L70,200 L130,200 L130,150" fill="#8E44AD"/>
  
  <!-- Name banner -->
  <rect x="0" y="160" width="200" height="40" fill="#2C3E50"/>
  <text x="100" y="185" font-family="Arial" font-size="16" text-anchor="middle" fill="white">Jennifer Lee</text>
</svg>